<svg width="80" height="80" viewBox="0 0 80 80" fill="none" xmlns="http://www.w3.org/2000/svg">
<path fill-rule="evenodd" clip-rule="evenodd" d="M20.2107 14.8145C17.3538 14.8145 14.8135 16.9985 14.8135 19.9598V36.7055C14.8135 39.6704 17.3538 41.8509 20.2107 41.8509H22.3048V34.6042C22.3048 32.9995 22.9885 31.4954 24.1507 30.416C25.3118 29.345 26.8348 28.7525 28.4144 28.7572H51.5865C53.1553 28.7572 54.6917 29.3365 55.8503 30.4124C57.0089 31.4954 57.6961 33.0031 57.6961 34.6042V41.8545H59.7902C62.6472 41.8545 65.1874 39.6704 65.1874 36.7091V19.9598C65.1874 16.9985 62.6472 14.8145 59.7902 14.8145H20.2107ZM53.1984 41.8545H26.8025V34.6042C26.8025 34.2984 26.932 33.971 27.2163 33.7047C27.547 33.413 27.9734 33.2529 28.4144 33.2549H51.5865C52.0263 33.2538 52.4512 33.4138 52.7811 33.7047C53.0689 33.971 53.1984 34.2984 53.1984 34.6042V41.8545ZM31.9046 49.8927C31.9046 49.177 31.6203 48.4906 31.1142 47.9845C30.6082 47.4784 29.9218 47.1941 29.206 47.1941C28.4903 47.1941 27.8039 47.4784 27.2978 47.9845C26.7918 48.4906 26.5074 49.177 26.5074 49.8927V53.8507C26.5074 54.471 26.261 55.0658 25.8224 55.5045C25.3838 55.9431 24.7889 56.1895 24.1686 56.1895H23.8088C23.0931 56.1895 22.4067 56.4738 21.9006 56.9799C21.3945 57.486 21.1102 58.1724 21.1102 58.8881C21.1102 59.6038 21.3945 60.2902 21.9006 60.7963C22.4067 61.3024 23.0931 61.5867 23.8088 61.5867H24.1686C26.2204 61.5867 28.188 60.7716 29.6388 59.3209C31.0896 57.8701 31.9046 55.9024 31.9046 53.8507V49.8927ZM50.7949 47.1941C50.0792 47.1941 49.3928 47.4784 48.8867 47.9845C48.3806 48.4906 48.0963 49.177 48.0963 49.8927V53.8507C48.0963 55.9024 48.9113 57.8701 50.3621 59.3209C51.8129 60.7716 53.7806 61.5867 55.8323 61.5867H56.1921C56.9078 61.5867 57.5942 61.3024 58.1003 60.7963C58.6064 60.2902 58.8907 59.6038 58.8907 58.8881C58.8907 58.1724 58.6064 57.486 58.1003 56.9799C57.5942 56.4738 56.9078 56.1895 56.1921 56.1895H55.8323C55.212 56.1895 54.6171 55.9431 54.1785 55.5045C53.7399 55.0658 53.4935 54.471 53.4935 53.8507V49.8927C53.4935 49.177 53.2092 48.4906 52.7031 47.9845C52.197 47.4784 51.5106 47.1941 50.7949 47.1941ZM42.6991 49.8927C42.6991 49.177 42.4148 48.4906 41.9087 47.9845C41.4026 47.4784 40.7162 47.1941 40.0005 47.1941C39.2847 47.1941 38.5983 47.4784 38.0923 47.9845C37.5862 48.4906 37.3019 49.177 37.3019 49.8927V62.4862C37.3019 63.2019 37.5862 63.8883 38.0923 64.3944C38.5983 64.9005 39.2847 65.1848 40.0005 65.1848C40.7162 65.1848 41.4026 64.9005 41.9087 64.3944C42.4148 63.8883 42.6991 63.2019 42.6991 62.4862V49.8927Z" fill="#3E3ECC"/>
</svg>
