<svg width="32" height="32" viewBox="0 0 32 32" fill="none" xmlns="http://www.w3.org/2000/svg">
<path d="M25.5874 17.2423C25.8991 16.9128 26.0742 16.4662 26.0742 16.0006C26.0742 15.5349 25.8991 15.0883 25.5874 14.7588L19.3107 8.12964C18.9984 7.8 18.5749 7.61481 18.1332 7.61481C17.6916 7.61481 17.2681 7.8 16.9558 8.12964C16.6435 8.45927 16.4681 8.90636 16.4681 9.37254C16.4681 9.83872 16.6435 10.2858 16.9558 10.6154L20.3916 14.2434L7.59069 14.2434C7.1492 14.2434 6.7258 14.4285 6.41363 14.7581C6.10145 15.0876 5.92607 15.5345 5.92607 16.0006C5.92607 16.4666 6.10145 16.9136 6.41363 17.2431C6.7258 17.5726 7.1492 17.7577 7.59069 17.7577L20.3916 17.7577L16.9558 21.3845C16.8012 21.5478 16.6785 21.7415 16.5949 21.9548C16.5112 22.168 16.4681 22.3966 16.4681 22.6274C16.4681 22.8583 16.5112 23.0868 16.5949 23.3001C16.6785 23.5134 16.8012 23.7071 16.9558 23.8704C17.1104 24.0336 17.294 24.163 17.496 24.2514C17.698 24.3397 17.9146 24.3852 18.1332 24.3852C18.3519 24.3852 18.5684 24.3397 18.7705 24.2514C18.9725 24.163 19.1561 24.0336 19.3107 23.8704L25.5874 17.2423Z" fill="white"/>
</svg>
