<svg width="86" height="85" viewBox="0 0 86 85" fill="none" xmlns="http://www.w3.org/2000/svg">
<path d="M59.7583 31.5712L28.9951 18.0293C28.6906 17.8948 28.3624 17.8219 28.0295 17.815C27.6967 17.8081 27.3657 17.8672 27.0559 17.989C26.7463 18.1114 26.464 18.2939 26.2254 18.526C25.9867 18.7582 25.7965 19.0353 25.6657 19.3415L18.1102 36.9708C17.8471 37.5846 17.8386 38.2779 18.0866 38.898C18.3345 39.5181 18.8187 40.0143 19.4324 40.2776L36.9535 47.7851L33.8306 55.5924H22.9432V48.037H17.9062V68.1848H22.9432V60.6294H33.8306C35.9033 60.6294 37.7393 59.3853 38.5049 57.4611L41.5825 49.7697L50.1931 53.4593C50.8042 53.7219 51.4944 53.7321 52.113 53.4877C52.7315 53.2433 53.2283 52.7641 53.4949 52.1547L61.0503 34.8855C61.3176 34.2746 61.3317 33.5826 61.0895 32.9612C60.8473 32.3399 60.3686 31.84 59.7583 31.5712ZM63.0626 54.0108L58.3832 52.1421L63.4152 39.5497L68.0945 41.4159L63.0626 54.0108Z" fill="#3E3ECC"/>
</svg>
