<svg width="80" height="80" viewBox="0 0 80 80" fill="none" xmlns="http://www.w3.org/2000/svg">
<path d="M28.9725 22.6966C28.0287 22.6966 27.3995 23.6404 27.3995 24.2696V32.1346H24.2535V24.2696C24.2535 23.3258 23.6243 22.6966 22.6805 22.6966C21.7367 22.6966 21.1075 23.6404 21.1075 24.2696V32.1346H17.9614V24.2696C17.9614 23.3258 17.3322 22.6966 16.3884 22.6966C15.4446 22.6966 14.8154 23.6404 14.8154 24.2696V34.6515C14.8154 37.4829 17.0176 39.6851 19.5345 39.9997V62.0218C19.5345 63.9094 20.7929 65.1679 22.6805 65.1679C24.5681 65.1679 25.8265 63.9094 25.8265 62.0218V39.9997C28.3433 39.6851 30.5455 37.4829 30.5455 34.6515V24.2696C30.5455 23.6404 29.9163 22.6966 28.9725 22.6966ZM35.2646 24.2696V43.1457H38.4106V62.0218C38.4106 63.9094 39.669 65.1679 41.5566 65.1679C43.4442 65.1679 44.7026 63.9094 44.7026 62.0218V14.8315C39.3544 14.8315 35.2646 18.9214 35.2646 24.2696ZM57.2867 21.1236C52.8823 21.1236 49.4216 25.8426 49.4216 31.5054C49.107 35.2807 50.9947 38.7413 54.1407 40.9435V62.0218C54.1407 63.9094 55.3991 65.1679 57.2867 65.1679C59.1743 65.1679 60.4327 63.9094 60.4327 62.0218V40.9435C63.5787 38.7413 65.4663 35.2807 65.1517 31.5054C65.1517 25.8426 61.6911 21.1236 57.2867 21.1236Z" fill="#3E3ECC"/>
</svg>
