<svg width="32" height="32" viewBox="0 0 32 32" fill="none" xmlns="http://www.w3.org/2000/svg">
<path d="M25.151 12.3368C24.4402 12.3555 23.7376 12.1815 23.1178 11.8331C22.6225 11.5488 22.0586 11.4063 21.4877 11.421V10.5051C22.1984 10.4864 22.901 10.6605 23.5208 11.0089C24.0161 11.2931 24.5801 11.4357 25.151 11.421M25.151 9.58932C24.5801 9.60404 24.0161 9.46147 23.5208 9.1772C22.901 8.82884 22.1984 8.65479 21.4877 8.6735V9.58932C22.0586 9.57461 22.6225 9.71718 23.1178 10.0014C23.7376 10.3498 24.4402 10.5239 25.151 10.5051M25.151 13.2526C24.5801 13.2673 24.0161 13.1248 23.5208 12.8405C22.901 12.4921 22.1984 12.3181 21.4877 12.3368V13.2526C22.0586 13.2379 22.6225 13.3805 23.1178 13.6647C23.7376 14.0131 24.4402 14.1872 25.151 14.1684M14.1611 15.7528C16.3238 15.3352 18.4636 14.8064 20.5718 14.1684V7.75768C20.5718 7.75768 14.619 5.92603 11.8715 5.92603C10.6484 5.92947 9.46837 6.37782 8.55157 7.18741C7.63477 7.997 7.04386 9.11251 6.88912 10.3258C6.73438 11.539 7.02637 12.7672 7.71062 13.7809C8.39486 14.7947 9.4246 15.5249 10.6077 15.8353L11.4136 21.495H12.3294C12.366 21.9316 12.5065 22.353 12.7391 22.7242C12.9717 23.0954 13.2897 23.4056 13.6665 23.6289C14.0914 23.8815 14.4443 24.2391 14.6912 24.6673C14.9382 25.0954 15.071 25.5799 15.0769 26.0742H15.9927C15.9886 25.4433 15.8263 24.8235 15.5207 24.2715C15.2151 23.7195 14.776 23.253 14.2435 22.9146C13.6024 22.4109 13.2452 22.072 13.2452 21.495H14.1611M11.8715 13.2526C11.4187 13.2526 10.976 13.1183 10.5995 12.8668C10.223 12.6152 9.92952 12.2576 9.75622 11.8392C9.58293 11.4209 9.53759 10.9605 9.62593 10.5164C9.71428 10.0723 9.93234 9.6643 10.2525 9.3441C10.5727 9.0239 10.9807 8.80584 11.4248 8.71749C11.869 8.62915 12.3293 8.67449 12.7477 8.84778C13.166 9.02107 13.5236 9.31453 13.7752 9.69105C14.0268 10.0676 14.1611 10.5102 14.1611 10.9631C14.1611 11.5703 13.9198 12.1527 13.4905 12.582C13.0611 13.0114 12.4787 13.2526 11.8715 13.2526Z" fill="#3E3ECC"/>
</svg>
