<svg width="32" height="32" viewBox="0 0 32 32" fill="none" xmlns="http://www.w3.org/2000/svg">
<path d="M22.4106 15.542L19.6632 12.7946L17.7399 14.7178C16.5018 14.051 15.1165 13.7047 13.7103 13.7104C12.016 13.7104 10.4591 14.1958 9.17696 15.0017C8.84726 14.5987 8.67326 14.1683 8.67326 13.7104C8.67326 12.0711 10.9262 10.734 13.7103 10.734C15.0199 10.734 16.2746 11.0362 17.2179 11.5765L19.0679 9.72655C17.6209 8.75578 15.7068 8.21544 13.7103 8.21544C9.41507 8.21544 5.92578 10.679 5.92578 13.7104C5.92578 14.8002 6.38369 15.8534 7.24457 16.7601C6.39277 17.8511 5.92875 19.1949 5.92578 20.5791V23.7845C5.92578 24.801 6.74087 25.6161 7.75743 25.6161H19.6632C20.6797 25.6161 21.4948 24.801 21.4948 23.7845V20.5791C21.4948 19.4618 21.1834 18.3536 20.579 17.3737L22.4106 15.542ZM9.58908 21.4949V23.7845H7.75743V21.4949C7.75743 19.9161 8.38461 18.402 9.50098 17.2856C10.6174 16.1692 12.1315 15.542 13.7103 15.542C14.0217 15.542 14.3239 15.5787 14.6261 15.6245C11.7779 16.0641 9.58908 18.5185 9.58908 21.4949ZM26.0739 12.1535C26.0739 13.6463 25.0757 15.1757 23.6745 15.5146L23.0609 14.8918L22.4106 14.2599H23.0975C24.0133 14.2599 24.7002 12.996 24.7002 12.0619C24.7002 11.1278 23.9217 10.1753 23.0059 10.1753V8.80157C24.7002 8.80157 26.0739 10.4592 26.0739 12.1535ZM21.1743 11.6315C20.6065 11.0728 20.2584 10.3035 20.2584 9.4518C20.2584 7.75753 21.6322 6.38379 23.3265 6.38379V7.75753C22.4106 7.75753 21.6322 8.51766 21.6322 9.4518C21.6322 10.3859 22.4106 11.1461 23.3265 11.1461V12.5198C22.5755 12.5198 21.8795 12.7488 21.3025 13.1426L20.3225 12.1626C20.579 11.9612 20.872 11.778 21.1743 11.6315Z" fill="#3E3ECC"/>
</svg>
