<svg width="30" height="30" viewBox="0 0 30 30" fill="none" xmlns="http://www.w3.org/2000/svg">
<path d="M14.9998 14.5278C14.3736 14.5278 13.773 14.279 13.3302 13.8362C12.8874 13.3934 12.6387 12.7929 12.6387 12.1667C12.6387 11.5404 12.8874 10.9399 13.3302 10.4971C13.773 10.0543 14.3736 9.80554 14.9998 9.80554C15.626 9.80554 16.2265 10.0543 16.6693 10.4971C17.1121 10.9399 17.3609 11.5404 17.3609 12.1667C17.3609 12.4767 17.2998 12.7837 17.1812 13.0702C17.0625 13.3567 16.8886 13.617 16.6693 13.8362C16.4501 14.0555 16.1898 14.2294 15.9033 14.348C15.6169 14.4667 15.3098 14.5278 14.9998 14.5278ZM14.9998 5.55554C13.2464 5.55554 11.5648 6.25207 10.325 7.49189C9.0852 8.73172 8.38867 10.4133 8.38867 12.1667C8.38867 17.125 14.9998 24.4444 14.9998 24.4444C14.9998 24.4444 21.6109 17.125 21.6109 12.1667C21.6109 10.4133 20.9144 8.73172 19.6745 7.49189C18.4347 6.25207 16.7532 5.55554 14.9998 5.55554Z" fill="white"/>
</svg>
