<svg width="80" height="80" viewBox="0 0 80 80" fill="none" xmlns="http://www.w3.org/2000/svg">
<path d="M22.0112 14.8145C18.0423 14.8145 14.8154 18.0413 14.8154 22.0102V57.9891C14.8154 61.958 18.0423 65.1848 22.0112 65.1848H57.99C61.9589 65.1848 65.1858 61.958 65.1858 57.9891V22.0102C65.1858 18.0413 61.9589 14.8145 57.99 14.8145H22.0112ZM36.4027 39.9996H41.7996C43.7896 39.9996 45.3974 38.3918 45.3974 36.4018C45.3974 34.4117 43.7896 32.8039 41.7996 32.8039H36.4027V39.9996ZM41.7996 47.1954H36.4027V50.7933C36.4027 52.7834 34.7949 54.3912 32.8048 54.3912C30.8148 54.3912 29.207 52.7834 29.207 50.7933V30.1055C29.207 27.6207 31.2195 25.6081 33.7043 25.6081H41.7996C47.7586 25.6081 52.5932 30.4428 52.5932 36.4018C52.5932 42.3607 47.7586 47.1954 41.7996 47.1954Z" fill="#3E3ECC"/>
</svg>
