<svg width="30" height="30" viewBox="0 0 30 30" fill="none" xmlns="http://www.w3.org/2000/svg">
<path d="M9.35443 13.7301C10.8655 16.6999 13.3001 19.1239 16.2699 20.6455L18.5785 18.3369C18.8618 18.0536 19.2816 17.9591 19.6489 18.085C20.8242 18.4733 22.0939 18.6832 23.3952 18.6832C23.9723 18.6832 24.4446 19.1554 24.4446 19.7326V23.3949C24.4446 23.9721 23.9723 24.4443 23.3952 24.4443C13.5415 24.4443 5.55566 16.4585 5.55566 6.6048C5.55566 6.02764 6.02789 5.55542 6.60505 5.55542H10.2779C10.855 5.55542 11.3273 6.02764 11.3273 6.6048C11.3273 7.91653 11.5371 9.17579 11.9254 10.3511C12.0408 10.7184 11.9569 11.1276 11.6631 11.4215L9.35443 13.7301Z" fill="white"/>
</svg>
