<svg width="32" height="32" viewBox="0 0 32 32" fill="none" xmlns="http://www.w3.org/2000/svg">
<path d="M16.2772 23.052C16.4787 23.0352 16.651 22.9552 16.794 22.8122C16.9371 22.6691 17.0083 22.4972 17.0076 22.2964C17.0076 22.0613 16.932 21.8726 16.7809 21.7302C16.6298 21.5879 16.4367 21.5247 16.2017 21.5408C15.5133 21.5912 14.7829 21.4025 14.0105 20.9747C13.2382 20.5469 12.7513 19.7702 12.5498 18.6445C12.5162 18.4599 12.4282 18.3087 12.2859 18.1912C12.1435 18.0737 11.9796 18.0149 11.7943 18.0149C11.5592 18.0149 11.3661 18.1032 11.215 18.2799C11.0639 18.4565 11.0135 18.662 11.0639 18.8964C11.3493 20.4243 12.0209 21.5157 13.0787 22.1705C14.1365 22.8253 15.2026 23.1191 16.2772 23.052ZM16.0002 26.0742C13.6999 26.0742 11.7818 25.285 10.2459 23.7068C8.70991 22.1285 7.94159 20.1641 7.94092 17.8134C7.94092 16.1344 8.60849 14.3087 9.94364 12.3362C11.2788 10.3637 13.2976 8.22694 16.0002 5.92603C18.7034 8.22627 20.7226 10.363 22.0577 12.3362C23.3929 14.3093 24.0601 16.1351 24.0594 17.8134C24.0594 20.1641 23.2915 22.1285 21.7555 23.7068C20.2195 25.285 18.3011 26.0742 16.0002 26.0742Z" fill="#3E3ECC"/>
</svg>
