<svg width="32" height="32" viewBox="0 0 32 32" fill="none" xmlns="http://www.w3.org/2000/svg">
<path d="M9.83462 16.0088H14.0394C15.3535 16.0088 16.5869 15.5606 17.4716 14.8022C17.9803 14.3772 18.3704 13.8281 18.6041 13.208H9.8335C9.53612 13.208 9.25092 13.09 9.04064 12.8799C8.83036 12.6698 8.71223 12.3849 8.71223 12.0877C8.71223 11.7906 8.83036 11.5057 9.04064 11.2956C9.25092 11.0855 9.53612 10.9674 9.8335 10.9674H18.6041C18.3704 10.3474 17.9803 9.79824 17.4716 9.37328C16.5858 8.61596 15.3535 8.16673 14.0394 8.16673H9.8335C9.53612 8.16673 9.25092 8.0487 9.04064 7.8386C8.83036 7.62851 8.71223 7.34356 8.71223 7.04644C8.71223 6.74932 8.83036 6.46437 9.04064 6.25427C9.25092 6.04418 9.53612 5.92615 9.8335 5.92615H14.0383L14.2401 5.92839L14.3186 5.92615H22.1674C22.4648 5.92615 22.75 6.04418 22.9603 6.25427C23.1706 6.46437 23.2887 6.74932 23.2887 7.04644C23.2887 7.34356 23.1706 7.62851 22.9603 7.8386C22.75 8.0487 22.4648 8.16673 22.1674 8.16673H19.4484C20.19 8.94692 20.7028 9.91578 20.9307 10.9674H22.1674C22.4648 10.9674 22.75 11.0855 22.9603 11.2956C23.1706 11.5057 23.2887 11.7906 23.2887 12.0877C23.2887 12.3849 23.1706 12.6698 22.9603 12.8799C22.75 13.09 22.4648 13.208 22.1674 13.208H20.9307C20.6661 14.4706 19.9608 15.6211 18.9315 16.5028C17.6084 17.6354 15.8469 18.2493 14.0383 18.2493H12.8744L19.7567 24.1196C19.9748 24.3149 20.1078 24.5876 20.1273 24.8795C20.1467 25.1715 20.0511 25.4594 19.8609 25.6818C19.6706 25.9042 19.4008 26.0435 19.1092 26.0698C18.8176 26.096 18.5272 26.0073 18.3002 25.8225L9.10916 17.9838L9.09794 17.9737C8.89987 17.8029 8.76813 17.568 8.72571 17.31C8.68329 17.052 8.73289 16.7874 8.86584 16.5622C8.96491 16.3935 9.10646 16.2536 9.27643 16.1565C9.44639 16.0594 9.63883 16.0085 9.83462 16.0088Z" fill="white"/>
</svg>
