<svg width="80" height="80" viewBox="0 0 80 80" fill="none" xmlns="http://www.w3.org/2000/svg">
<path d="M44.1237 27.4288C44.1237 28.7379 44.6438 29.9934 45.5695 30.9191C46.4952 31.8448 47.7507 32.3649 49.0598 32.3649C50.3689 32.3649 51.6244 31.8448 52.5501 30.9191C53.4758 29.9934 53.9959 28.7379 53.9959 27.4288C53.9959 26.1196 53.4758 24.8641 52.5501 23.9384C51.6244 23.0127 50.3689 22.4927 49.0598 22.4927C47.7507 22.4927 46.4952 23.0127 45.5695 23.9384C44.6438 24.8641 44.1237 26.1196 44.1237 27.4288ZM39.4289 41.4912C39.3846 41.5679 39.3613 41.6549 39.3613 41.7434C39.3613 41.832 39.3846 41.919 39.4289 41.9957C39.4837 42.0936 39.5695 42.1705 39.6727 42.2142C39.776 42.2579 39.8909 42.2659 39.9993 42.2371H58.4055C58.4739 42.2389 58.5417 42.2238 58.6029 42.1932C58.6641 42.1626 58.7169 42.1174 58.7565 42.0616C58.7839 42.0032 58.7981 41.9395 58.7981 41.8751C58.7981 41.8106 58.7839 41.7469 58.7565 41.6886C58.1165 39.6389 56.8434 37.8448 55.12 36.5639C53.3966 35.283 51.3117 34.5812 49.1645 34.5592C47.0174 34.5373 44.9185 35.1964 43.1693 36.4418C41.4202 37.6873 40.1107 39.455 39.4289 41.4912Z" fill="#3E3ECC"/>
<path d="M62.7717 49.9156C63.3535 49.9156 63.9115 49.6844 64.323 49.273C64.7344 48.8616 64.9655 48.3036 64.9655 47.7217C64.9655 47.1399 64.7344 46.5819 64.323 46.1705C63.9115 45.7591 63.3535 45.5279 62.7717 45.5279H35.8755C35.5845 45.5279 35.3055 45.4124 35.0998 45.2067C34.8941 45.0009 34.7786 44.7219 34.7786 44.431V41.1403C34.7786 38.522 33.7385 36.011 31.8871 34.1596C30.0357 32.3082 27.5246 31.2681 24.9064 31.2681C22.2881 31.2681 19.7771 32.3082 17.9257 34.1596C16.0743 36.011 15.0342 38.522 15.0342 41.1403V48.8187C15.0342 49.1096 15.1497 49.3886 15.3555 49.5943C15.5612 49.8 15.8402 49.9156 16.1311 49.9156H18.3249C18.6027 49.9094 18.8722 50.011 19.0767 50.1992C19.2812 50.3873 19.4049 50.6474 19.4218 50.9247L20.4529 64.1754C20.4699 64.4528 20.5936 64.7128 20.7981 64.901C21.0026 65.0891 21.272 65.1907 21.5498 65.1846H28.2849C28.5612 65.1854 28.8277 65.082 29.031 64.8949C29.2344 64.7078 29.3597 64.4508 29.3818 64.1754L30.3251 51.0125C30.342 50.7351 30.4658 50.4751 30.6703 50.2869C30.8748 50.0988 31.1442 49.9971 31.422 50.0033L62.7717 49.9156ZM18.3468 21.3959C18.3468 22.2602 18.5171 23.116 18.8478 23.9145C19.1786 24.713 19.6634 25.4386 20.2745 26.0497C20.8857 26.6609 21.6112 27.1456 22.4097 27.4764C23.2082 27.8071 24.064 27.9774 24.9283 27.9774C25.7926 27.9774 26.6484 27.8071 27.4469 27.4764C28.2454 27.1456 28.971 26.6609 29.5821 26.0497C30.1932 25.4386 30.678 24.713 31.0088 23.9145C31.3395 23.116 31.5098 22.2602 31.5098 21.3959C31.5098 19.6504 30.8164 17.9764 29.5821 16.7421C28.3478 15.5079 26.6738 14.8145 24.9283 14.8145C23.1828 14.8145 21.5088 15.5079 20.2745 16.7421C19.0402 17.9764 18.3468 19.6504 18.3468 21.3959Z" fill="#3E3ECC"/>
</svg>
