<svg width="30" height="30" viewBox="0 0 30 30" fill="none" xmlns="http://www.w3.org/2000/svg">
<path d="M24.1956 11.0403L24.4182 12.0319C24.452 12.1823 24.452 12.3314 24.4236 12.4717C24.4371 12.5257 24.4441 12.5815 24.4446 12.639C24.4446 12.8179 24.3735 12.9895 24.247 13.116C24.1205 13.2425 23.9489 13.3136 23.77 13.3136H22.2488L21.2484 11.98V11.9786C21.0885 11.7643 20.8806 11.5904 20.6414 11.4708C20.4022 11.3512 20.1383 11.2892 19.8709 11.2899H19.7225V10.1498C19.7225 9.66279 19.3258 9.26614 18.8388 9.26614H17.9079C17.4208 9.26614 17.0242 9.66279 17.0242 10.1498V11.2831H12.9767V10.1498C12.9767 9.66279 12.58 9.26614 12.093 9.26614H11.1621C10.675 9.26614 10.2784 9.66279 10.2784 10.1498V11.2899H10.13C9.58491 11.2899 9.0756 11.5469 8.74708 11.9847L7.7514 13.3136H6.2309C6.12805 13.3136 6.02656 13.2902 5.93418 13.2449C5.8418 13.1997 5.76099 13.134 5.69791 13.0527C5.63483 12.9715 5.59117 12.8769 5.57025 12.7762C5.54934 12.6755 5.55172 12.5714 5.57723 12.4717C5.54676 12.3265 5.5486 12.1764 5.58263 12.0319L5.79849 11.0403C6.03908 9.96349 6.63913 9.0007 7.49986 8.3104C8.36059 7.6201 9.4307 7.24343 10.534 7.2424H19.4668C20.5697 7.24251 21.6394 7.61897 22.4993 8.30955C23.3591 9.00012 23.9576 9.96346 24.1956 11.0403Z" fill="white"/>
<path d="M20.7067 12.3827L23.1757 15.6747C23.9988 16.7697 24.4439 18.1026 24.4439 19.4725V21.7054C24.4439 22.2855 23.9717 22.7578 23.3916 22.7578H6.60801C6.02787 22.7578 5.55566 22.2855 5.55566 21.7054V19.4725C5.55566 18.1031 6.00089 16.7675 6.82387 15.6747L9.28609 12.3895C9.48846 12.1196 9.79877 11.9645 10.1293 11.9645H10.7432C10.8579 11.9645 10.9523 11.87 10.9523 11.7554V10.1499C10.9523 10.0352 11.0467 9.94073 11.1614 9.94073H12.0923C12.207 9.94073 12.3015 10.0352 12.3015 10.1499V11.7554C12.3015 11.87 12.3959 11.9645 12.5106 11.9645H17.489C17.6037 11.9645 17.6981 11.87 17.6981 11.7554V10.1499C17.6981 10.0352 17.7925 9.94073 17.9072 9.94073H18.8381C18.9528 9.94073 19.0473 10.0352 19.0473 10.1499V11.7554C19.0473 11.87 19.1417 11.9645 19.2564 11.9645H19.8702C20.2008 11.9645 20.5111 12.1196 20.7067 12.3827ZM13.4469 15.3374C13.5616 15.3374 13.6567 15.2429 13.6499 15.1269V14.1987C13.6498 14.143 13.6276 14.0897 13.5883 14.0503C13.5491 14.0109 13.4958 13.9886 13.4402 13.9882H12.5119C12.4562 13.9884 12.4027 14.0106 12.3633 14.0501C12.3239 14.0895 12.3016 14.1429 12.3015 14.1987V15.1269C12.3015 15.2423 12.3959 15.3374 12.5187 15.3374H13.4469ZM15.4706 15.3374C15.498 15.3376 15.5252 15.3322 15.5504 15.3216C15.5757 15.311 15.5985 15.2954 15.6176 15.2758C15.6366 15.2561 15.6515 15.2327 15.6612 15.2072C15.671 15.1816 15.6755 15.1543 15.6744 15.1269V14.1987C15.674 14.143 15.6517 14.0896 15.6123 14.0502C15.5729 14.0109 15.5196 13.9886 15.4639 13.9882H14.5357C14.4799 13.9884 14.4265 14.0106 14.387 14.0501C14.3476 14.0895 14.3254 14.1429 14.3252 14.1987V15.1269C14.3252 15.2423 14.4196 15.3374 14.5424 15.3374H15.4706ZM16.5662 15.3374H17.4944C17.5218 15.3376 17.5489 15.3322 17.5742 15.3216C17.5994 15.311 17.6223 15.2954 17.6413 15.2758C17.6603 15.2561 17.6752 15.2327 17.685 15.2072C17.6947 15.1816 17.6992 15.1543 17.6981 15.1269V14.1987C17.6977 14.143 17.6755 14.0896 17.6361 14.0502C17.5967 14.0109 17.5433 13.9886 17.4876 13.9882H16.5594C16.5036 13.9884 16.4502 14.0106 16.4108 14.0501C16.3714 14.0895 16.3491 14.1429 16.3489 14.1987V15.1269C16.3489 15.2423 16.4434 15.3374 16.5662 15.3374ZM13.4469 17.3611C13.5616 17.3611 13.6567 17.2667 13.6499 17.1506V16.2224C13.6498 16.1668 13.6276 16.1134 13.5883 16.074C13.5491 16.0346 13.4958 16.0123 13.4402 16.012H12.5119C12.4562 16.0121 12.4027 16.0344 12.3633 16.0738C12.3239 16.1132 12.3016 16.1667 12.3015 16.2224V17.1506C12.3015 17.266 12.3959 17.3611 12.5187 17.3611H13.4469ZM14.5424 17.3611H15.4706C15.498 17.3613 15.5252 17.356 15.5504 17.3454C15.5757 17.3348 15.5985 17.3192 15.6176 17.2995C15.6366 17.2798 15.6515 17.2565 15.6612 17.2309C15.671 17.2053 15.6755 17.178 15.6744 17.1506V16.2224C15.674 16.1667 15.6517 16.1134 15.6123 16.074C15.5729 16.0346 15.5196 16.0123 15.4639 16.012H14.5357C14.4799 16.0121 14.4265 16.0344 14.387 16.0738C14.3476 16.1132 14.3254 16.1667 14.3252 16.2224V17.1506C14.3252 17.266 14.4196 17.3611 14.5424 17.3611ZM17.4944 17.3611C17.5218 17.3613 17.5489 17.356 17.5742 17.3454C17.5994 17.3348 17.6223 17.3192 17.6413 17.2995C17.6603 17.2798 17.6752 17.2565 17.685 17.2309C17.6947 17.2053 17.6992 17.178 17.6981 17.1506V16.2224C17.6977 16.1667 17.6755 16.1134 17.6361 16.074C17.5967 16.0346 17.5433 16.0123 17.4876 16.012H16.5594C16.5036 16.0121 16.4502 16.0344 16.4108 16.0738C16.3714 16.1132 16.3491 16.1667 16.3489 16.2224V17.1506C16.3489 17.266 16.4434 17.3611 16.5662 17.3611H17.4944ZM12.5187 19.3849H13.4469C13.5616 19.3849 13.6567 19.2904 13.6499 19.1744V18.2462C13.6498 18.1905 13.6276 18.1372 13.5883 18.0978C13.5491 18.0584 13.4958 18.036 13.4402 18.0357H12.5119C12.4562 18.0359 12.4027 18.0581 12.3633 18.0975C12.3239 18.137 12.3016 18.1904 12.3015 18.2462V19.1744C12.3015 19.2897 12.3959 19.3849 12.5187 19.3849ZM15.4706 19.3849C15.498 19.3851 15.5252 19.3797 15.5504 19.3691C15.5757 19.3585 15.5985 19.3429 15.6176 19.3232C15.6366 19.3036 15.6515 19.2802 15.6612 19.2546C15.671 19.229 15.6755 19.2017 15.6744 19.1744V18.2462C15.674 18.1905 15.6517 18.1371 15.6123 18.0977C15.5729 18.0583 15.5196 18.036 15.4639 18.0357H14.5357C14.4799 18.0359 14.4265 18.0581 14.387 18.0975C14.3476 18.137 14.3254 18.1904 14.3252 18.2462V19.1744C14.3252 19.2897 14.4196 19.3849 14.5424 19.3849H15.4706ZM16.5662 19.3849H17.4944C17.5218 19.3851 17.5489 19.3797 17.5742 19.3691C17.5994 19.3585 17.6223 19.3429 17.6413 19.3232C17.6603 19.3036 17.6752 19.2802 17.685 19.2546C17.6947 19.229 17.6992 19.2017 17.6981 19.1744V18.2462C17.6977 18.1905 17.6755 18.1371 17.6361 18.0977C17.5967 18.0583 17.5433 18.036 17.4876 18.0357H16.5594C16.5036 18.0359 16.4502 18.0581 16.4108 18.0975C16.3714 18.137 16.3491 18.1904 16.3489 18.2462V19.1744C16.3489 19.2897 16.4434 19.3849 16.5662 19.3849Z" fill="white"/>
</svg>
