<svg width="80" height="80" viewBox="0 0 80 80" fill="none" xmlns="http://www.w3.org/2000/svg">
<path d="M54.0359 14.8145L41.8733 26.9279L47.0823 32.1369L49.6868 29.557L47.0823 26.9279L54.0359 19.9743L56.6404 22.5789L59.2941 19.9743M62.734 19.9743L48.3846 34.3238L43.151 36.0683L17.5235 61.6712L21.0372 65.1848L34.9197 51.2531L45.3624 61.6712L55.7804 51.2531L45.3624 40.835L45.7801 40.3682L51.0137 38.6237L62.734 26.9279C64.6505 25.0114 64.6505 21.8909 62.734 19.9743ZM26.2462 21.7189L15.8281 32.1369L27.9907 44.2995L38.4088 33.8815M54.9204 55.6022L49.6868 60.8112L53.1513 64.2757L58.3849 59.0421L54.9204 55.6022Z" fill="#3E3ECC"/>
</svg>
