<svg width="80" height="80" viewBox="0 0 80 80" fill="none" xmlns="http://www.w3.org/2000/svg">
<path d="M63.0778 18.1003C62.8833 17.4703 62.557 16.8889 62.1206 16.3946C61.6842 15.9003 61.1477 15.5045 60.5466 15.2334C59.9487 14.9538 59.2954 14.8125 58.6353 14.8202H21.4688C20.8091 14.7842 20.1512 14.9176 19.5575 15.2076C18.9441 15.4832 18.3978 15.8885 17.9562 16.3957C17.5205 16.8898 17.1947 17.4708 17.0006 18.1003C16.8004 18.7253 16.7387 19.3863 16.8198 20.0375L21.0556 56.1967C21.3397 58.671 22.5278 60.949 24.3874 62.602C26.2052 64.253 28.5696 65.173 31.0252 65.1848H49.1048C51.5684 65.1745 53.9414 64.2547 55.7684 62.602C57.6037 60.9331 58.7772 58.6595 59.0744 56.1967L61.3731 35.87V35.5601L63.1552 20.0633C63.2552 19.41 63.2289 18.7437 63.0778 18.1003ZM36.9915 57.7464H34.4087C32.7356 57.6533 31.1429 56.998 29.8888 55.8867C28.639 54.7606 27.8177 53.2365 27.5642 51.5735L26.9444 47.131C26.8648 46.4538 27.0535 45.7724 27.4702 45.2327C27.8868 44.6929 28.4982 44.3377 29.1735 44.2432C29.8488 44.1487 30.5342 44.3223 31.083 44.7269C31.6319 45.1315 32.0005 45.7349 32.11 46.4079L32.7298 50.7986C32.8014 51.2778 33.0391 51.7166 33.4014 52.0384C33.7623 52.3696 34.2291 52.5618 34.7186 52.5808H37.3014C37.9864 52.5808 38.6433 52.8529 39.1277 53.3372C39.6121 53.8216 39.8842 54.4786 39.8842 55.1636C39.8842 55.8486 39.6121 56.5055 39.1277 56.9899C38.6433 57.4742 37.9864 57.7464 37.3014 57.7464H36.9915ZM57.6539 33.9071C52.2042 34.966 47.5551 35.1727 42.622 31.3243C36.5007 26.4945 29.0881 28.0441 21.9596 30.5753L20.6682 19.6242C20.6436 19.5136 20.6436 19.399 20.6682 19.2884C20.7033 19.1799 20.7655 19.0821 20.8489 19.0043C20.9101 18.909 21.0008 18.8364 21.1072 18.7977C21.2081 18.766 21.3163 18.766 21.4172 18.7977H58.9195C59.0161 18.8523 59.1033 18.922 59.1777 19.0043C59.2552 19.0853 59.3069 19.18 59.3327 19.2884C59.3721 19.4058 59.3721 19.5327 59.3327 19.65L57.6539 33.9071Z" fill="#3E3ECC"/>
</svg>
