<svg width="32" height="32" viewBox="0 0 32 32" fill="none" xmlns="http://www.w3.org/2000/svg">
<path d="M11.9704 5.92603C10.8522 5.92603 9.95557 6.82262 9.95557 7.94084V20.0297C9.95557 21.148 10.8522 22.0445 11.9704 22.0445H12.9778V24.0594H9.95557V26.0742H12.9778C14.096 26.0742 14.9926 25.1776 14.9926 24.0594V22.0445H17.0074V24.0594C17.0074 25.1776 17.904 26.0742 19.0222 26.0742H22.0445V24.0594H19.0222V22.0445H20.0296C21.1479 22.0445 22.0445 21.148 22.0445 20.0297V7.94084C22.0445 6.82262 21.1479 5.92603 20.0296 5.92603H11.9704ZM16 8.91803C16.5344 8.91803 17.0468 9.1303 17.4247 9.50815C17.8026 9.886 18.0148 10.3985 18.0148 10.9328C18.0148 11.4672 17.8026 11.9797 17.4247 12.3575C17.0468 12.7354 16.5344 12.9477 16 12.9477C15.4656 12.9477 14.9532 12.7354 14.5753 12.3575C14.1975 11.9797 13.9852 11.4672 13.9852 10.9328C13.9852 10.3985 14.1975 9.886 14.5753 9.50815C14.9532 9.1303 15.4656 8.91803 16 8.91803ZM13.9852 18.5186H18.0148V20.0297H13.9852V18.5186Z" fill="#3E3ECC"/>
</svg>
