<svg width="80" height="80" viewBox="0 0 80 80" fill="none" xmlns="http://www.w3.org/2000/svg">
<path d="M40.0006 58.8179C38.4509 58.8179 37.1411 58.2829 36.0711 57.2129C35.0011 56.1429 34.466 54.833 34.466 53.2833C34.466 51.7337 35.0011 50.4238 36.0711 49.3538C37.1411 48.2838 38.4509 47.7488 40.0006 47.7488C41.5503 47.7488 42.8601 48.2838 43.9302 49.3538C45.0002 50.4238 45.5352 51.7337 45.5352 53.2833C45.5352 54.833 45.0002 56.1429 43.9302 57.2129C42.8601 58.2829 41.5503 58.8179 40.0006 58.8179ZM40.0006 34.4658C42.7679 34.4658 45.3972 34.9086 47.8885 35.7941C50.3798 36.6796 52.6393 37.8972 54.6672 39.4469C55.4052 40.0004 55.7837 40.7295 55.8029 41.6342C55.8221 42.5389 55.4989 43.3226 54.8332 43.9853C54.206 44.6125 53.4312 44.9357 52.5087 44.9549C51.5863 44.9741 50.7561 44.7247 50.0182 44.2067C48.6161 43.2473 47.0664 42.4909 45.3691 41.9375C43.6719 41.384 41.8824 41.1073 40.0006 41.1073C38.1189 41.1073 36.3294 41.384 34.6321 41.9375C32.9348 42.4909 31.3851 43.2473 29.983 44.2067C29.2451 44.7232 28.4149 44.963 27.4925 44.9261C26.5701 44.8893 25.7952 44.5572 25.168 43.9299C24.5407 43.2658 24.2271 42.4821 24.2271 41.5788C24.2271 40.6756 24.5961 39.9465 25.334 39.3916C27.3634 37.8419 29.6237 36.6332 32.115 35.7653C34.6063 34.8975 37.2348 34.4643 40.0006 34.4658ZM40.0006 21.1829C44.6128 21.1829 48.9578 21.9393 53.0356 23.452C57.1135 24.9648 60.7752 27.1048 64.0206 29.8721C64.7586 30.4994 65.146 31.2742 65.1829 32.1966C65.2198 33.1191 64.9062 33.9124 64.242 34.5765C63.6148 35.2038 62.8399 35.527 61.9175 35.5462C60.9951 35.5654 60.1649 35.279 59.4269 34.6872C56.7703 32.5103 53.7913 30.8226 50.4897 29.6242C47.1882 28.4258 43.6918 27.8258 40.0006 27.8243C36.3094 27.8229 32.8138 28.4228 29.5137 29.6242C26.2136 30.8256 23.2338 32.5132 20.5743 34.6872C19.8363 35.2776 19.0062 35.5639 18.0837 35.5462C17.1613 35.5285 16.3865 35.2052 15.7592 34.5765C15.0951 33.9124 14.7814 33.1191 14.8183 32.1966C14.8552 31.2742 15.2427 30.4994 15.9806 29.8721C19.2275 27.1048 22.89 24.9648 26.9678 23.452C31.0457 21.9393 35.39 21.1829 40.0006 21.1829Z" fill="#3E3ECC"/>
</svg>
